<svg aria-hidden="true" style="position: absolute; width: 0; height: 0; overflow: hidden;" version="1.1" xmlns="http://www.w3.org/2000/svg" xmlns:xlink="http://www.w3.org/1999/xlink">
<defs>
<symbol id="-iconballs-decoration" viewBox="0 0 35 32">
<path d="M1.604 3.273c0.886 0 1.604-0.733 1.604-1.636s-0.718-1.636-1.604-1.636c-0.886 0-1.604 0.733-1.604 1.636s0.718 1.636 1.604 1.636z"></path>
<path d="M10.893 3.273c0.886 0 1.604-0.733 1.604-1.636s-0.718-1.636-1.604-1.636c-0.886 0-1.604 0.733-1.604 1.636s0.718 1.636 1.604 1.636z"></path>
<path d="M20.183 3.273c0.886 0 1.604-0.733 1.604-1.636s-0.718-1.636-1.604-1.636c-0.886 0-1.604 0.733-1.604 1.636s0.718 1.636 1.604 1.636z"></path>
<path d="M29.472 3.273c0.886 0 1.604-0.733 1.604-1.636s-0.718-1.636-1.604-1.636c-0.886 0-1.604 0.733-1.604 1.636s0.718 1.636 1.604 1.636z"></path>
<path d="M1.604 11.489c0.886 0 1.604-0.733 1.604-1.636s-0.718-1.636-1.604-1.636c-0.886 0-1.604 0.733-1.604 1.636s0.718 1.636 1.604 1.636z"></path>
<path d="M10.893 11.489c0.886 0 1.604-0.733 1.604-1.636s-0.718-1.636-1.604-1.636-1.604 0.733-1.604 1.636c0 0.904 0.718 1.636 1.604 1.636z"></path>
<path d="M20.183 11.489c0.886 0 1.604-0.733 1.604-1.636s-0.718-1.636-1.604-1.636-1.604 0.733-1.604 1.636c0 0.904 0.718 1.636 1.604 1.636z"></path>
<path d="M29.472 11.489c0.886 0 1.604-0.733 1.604-1.636s-0.718-1.636-1.604-1.636c-0.886 0-1.604 0.733-1.604 1.636s0.718 1.636 1.604 1.636z"></path>
<path d="M1.604 19.688c0.886 0 1.604-0.733 1.604-1.636s-0.718-1.636-1.604-1.636c-0.886 0-1.604 0.733-1.604 1.636s0.718 1.636 1.604 1.636z"></path>
<path d="M10.893 19.688c0.886 0 1.604-0.733 1.604-1.636s-0.718-1.636-1.604-1.636c-0.886 0-1.604 0.733-1.604 1.636s0.718 1.636 1.604 1.636z"></path>
<path d="M20.183 19.688c0.886 0 1.604-0.733 1.604-1.636s-0.718-1.636-1.604-1.636c-0.886 0-1.604 0.733-1.604 1.636s0.718 1.636 1.604 1.636z"></path>
<path d="M29.472 19.688c0.886 0 1.604-0.733 1.604-1.636s-0.718-1.636-1.604-1.636c-0.886 0-1.604 0.733-1.604 1.636s0.718 1.636 1.604 1.636z"></path>
<path d="M1.604 27.904c0.886 0 1.604-0.733 1.604-1.636s-0.718-1.636-1.604-1.636c-0.886 0-1.604 0.733-1.604 1.636s0.718 1.636 1.604 1.636z"></path>
<path d="M10.893 27.904c0.886 0 1.604-0.733 1.604-1.636s-0.718-1.636-1.604-1.636c-0.886 0-1.604 0.733-1.604 1.636s0.718 1.636 1.604 1.636z"></path>
<path d="M20.183 27.904c0.886 0 1.604-0.733 1.604-1.636s-0.718-1.636-1.604-1.636c-0.886 0-1.604 0.733-1.604 1.636s0.718 1.636 1.604 1.636z"></path>
<path d="M29.472 27.904c0.886 0 1.604-0.733 1.604-1.636s-0.718-1.636-1.604-1.636c-0.886 0-1.604 0.733-1.604 1.636s0.718 1.636 1.604 1.636z"></path>
</symbol>
<symbol id="-iconfitness-jump" viewBox="0 0 32 32">
<path fill="#ececec" style="fill: var(--color1, #ececec)" d="M9.915 13.379h-4.119v-1.080h4.119v1.080z"></path>
<path fill="#e1e1e1" style="fill: var(--color2, #e1e1e1)" d="M8.173 14.516c-0-0.001-0.001-0.007-0.001-0.020-0-0.014-0.001-0.033-0.001-0.055-0.001-0.051-0.002-0.122-0.003-0.212-0.002-0.186-0.004-0.454-0.007-0.792l0.013 0.013c-0.941 0.002-2.436 0.005-4.119 0.008 0.009-0.009-0.021 0.021 0.021-0.021v0.138c0 0.046 0 0.092 0 0.138-0 0.092-0 0.182-0 0.273-0 0.18-0 0.357-0 0.531l-0.021-0.020c1.173 0.004 2.199 0.007 2.936 0.009 0.367 0.002 0.661 0.004 0.866 0.006 0.1 0.001 0.178 0.002 0.234 0.003 0.025 0.001 0.045 0.001 0.061 0.001 0.014 0 0.021 0.001 0.022 0.001s-0.006 0.001-0.019 0.001c-0.015 0-0.035 0.001-0.059 0.001-0.055 0.001-0.132 0.002-0.23 0.003-0.204 0.001-0.497 0.003-0.862 0.006-0.74 0.002-1.771 0.006-2.95 0.009l-0.021 0-0-0.020c-0-0.174-0-0.351-0-0.531 0-0.090-0-0.181-0-0.273 0-0.046 0-0.092-0-0.138v-0.138c0.042-0.042 0.012-0.012 0.021-0.021 1.683 0.003 3.179 0.006 4.119 0.008h0.013l-0 0.013c-0.003 0.341-0.005 0.612-0.007 0.8-0.001 0.090-0.002 0.159-0.003 0.21-0.001 0.022-0.001 0.039-0.001 0.053-0.001 0.012-0.001 0.018-0.001 0.017z"></path>
<path fill="#ececec" style="fill: var(--color1, #ececec)" d="M25.632 3.51h-4.119v-1.080h4.12v1.080z"></path>
<path fill="#e1e1e1" style="fill: var(--color2, #e1e1e1)" d="M23.904 4.613c-0-0-0.001-0.007-0.001-0.020-0-0.014-0.001-0.033-0.001-0.055-0.001-0.051-0.002-0.122-0.003-0.212-0.002-0.186-0.004-0.454-0.007-0.792l0.013 0.013c-0.941 0.002-2.437 0.005-4.119 0.008 0.009-0.009-0.021 0.021 0.021-0.021v0.138c0 0.046 0 0.092-0 0.138 0 0.092 0 0.182-0 0.273-0 0.18-0 0.357-0 0.531l-0.021-0.020c1.173 0.004 2.2 0.007 2.936 0.009 0.367 0.003 0.661 0.004 0.866 0.006 0.1 0.001 0.178 0.002 0.234 0.003 0.025 0 0.045 0.001 0.061 0.001 0.014 0 0.021 0.001 0.022 0.001s-0.006 0.001-0.019 0.001c-0.015 0-0.035 0.001-0.059 0.001-0.055 0.001-0.132 0.002-0.23 0.003-0.204 0.001-0.497 0.003-0.862 0.006-0.74 0.002-1.771 0.006-2.95 0.009l-0.020 0-0-0.020c-0-0.174-0-0.351-0-0.531 0-0.090-0-0.181-0-0.273-0-0.046-0-0.092-0-0.138v-0.138c0.042-0.042 0.012-0.011 0.021-0.021 1.683 0.003 3.179 0.006 4.119 0.008h0.013l-0 0.013c-0.003 0.341-0.005 0.612-0.007 0.8-0.001 0.090-0.002 0.16-0.003 0.21-0 0.022-0.001 0.039-0.001 0.053-0 0.012-0.001 0.018-0.001 0.017z"></path>
<path fill="#fff" style="fill: var(--color3, #fff)" d="M28.426 16.861h-6.832v-9.425h6.832v9.425z"></path>
<path fill="#e1e1e1" style="fill: var(--color2, #e1e1e1)" d="M28.426 16.861c0 0-0.001-0.016-0.001-0.045s-0-0.074-0.001-0.133c-0-0.117-0.001-0.29-0.002-0.514-0.001-0.449-0.002-1.105-0.004-1.935-0.002-1.659-0.004-4.013-0.007-6.797l0.015 0.014c-2.062 0-4.384 0.001-6.831 0.002h-0.001l0.016-0.016c-0.001 3.527-0.002 6.79-0.003 9.425l-0.013-0.013c2.072 0.003 3.778 0.005 4.968 0.007 0.595 0.002 1.060 0.003 1.378 0.003 0.158 0.001 0.28 0.001 0.362 0.002s0.125 0.001 0.125 0.001-0.041 0.001-0.122 0.001c-0.082 0-0.202 0.001-0.36 0.001-0.317 0.001-0.781 0.002-1.375 0.003-1.191 0.002-2.9 0.004-4.976 0.007l-0.013 0v-0.013c-0.001-2.635-0.002-5.898-0.003-9.425v-0.016h0.017c2.447 0.001 4.769 0.001 6.832 0.002h0.015l-0 0.014c-0.003 2.788-0.005 5.146-0.007 6.807-0.002 0.829-0.003 1.484-0.004 1.932-0.001 0.223-0.001 0.395-0.002 0.511-0 0.057-0.001 0.101-0.001 0.131s-0.001 0.044-0.001 0.044z"></path>
<path fill="#f5f5f5" style="fill: var(--color4, #f5f5f5)" d="M27.606 12.759h-5.323v-0.34h5.323v0.34z"></path>
<path fill="#f5f5f5" style="fill: var(--color4, #f5f5f5)" d="M26.506 12.904h-2.999v-0.614h2.999v0.614z"></path>
<path fill="#e1e1e1" style="fill: var(--color2, #e1e1e1)" d="M24.531 11.458c0.157 0 0.233-0.097 0.233-0.275v-1.001c0-0.178-0.076-0.275-0.236-0.275h-0.236v1.551h0.238zM24.534 9.71c0.306 0 0.446 0.184 0.446 0.484v0.981c0 0.297-0.14 0.481-0.446 0.481h-0.46v-1.946h0.46z"></path>
<path fill="#e1e1e1" style="fill: var(--color2, #e1e1e1)" d="M25.384 11.197c0 0.178 0.076 0.281 0.233 0.281 0.16 0 0.233-0.103 0.233-0.281v-1.029c0-0.175-0.073-0.281-0.233-0.281-0.157 0-0.233 0.106-0.233 0.281v1.029zM25.168 10.179c0-0.297 0.149-0.489 0.449-0.489 0.303 0 0.452 0.192 0.452 0.489v1.007c0 0.295-0.149 0.489-0.452 0.489-0.3 0-0.449-0.195-0.449-0.489v-1.006z"></path>
<path fill="#e1e1e1" style="fill: var(--color2, #e1e1e1)" d="M24.673 15.54h-0.239v-2.122h0.239v2.122z"></path>
<path fill="#e1e1e1" style="fill: var(--color2, #e1e1e1)" d="M25.23 15.54v-1.907h-0.395v-0.215h1.028v0.215h-0.395v1.907h-0.239z"></path>
<path fill="#f5f5f5" style="fill: var(--color4, #f5f5f5)" d="M22.46 9.871l0.259 0.927 0.228-0.256 0.38 0.64-0.252-1.101-0.235 0.264-0.38-0.474z"></path>
<path fill="#f5f5f5" style="fill: var(--color4, #f5f5f5)" d="M27.547 9.777l-0.259 0.927-0.228-0.256-0.38 0.64 0.252-1.101 0.235 0.264 0.38-0.474z"></path>
<path fill="#e1e1e1" style="fill: var(--color2, #e1e1e1)" d="M24.974 7.895l-0.337 1.106 0.398-0.115-0.029 0.891 0.457-1.278-0.41 0.119-0.079-0.723z"></path>
<path fill="#e1e1e1" style="fill: var(--color2, #e1e1e1)" d="M26.471 11.42h-0.062v-2.497h-2.719v2.497h-0.062v-2.558h2.842v2.558z"></path>
<path fill="#e1e1e1" style="fill: var(--color2, #e1e1e1)" d="M26.471 15.93h-2.842v-2.558h0.062v2.497h2.719v-2.497h0.062v2.558z"></path>
<path fill="#e1e1e1" style="fill: var(--color2, #e1e1e1)" d="M23.302 13.754h-0.203c-0.113 0-0.205-0.091-0.205-0.203v-1.928c0-0.112 0.092-0.203 0.205-0.203h0.203c0.113 0 0.205 0.091 0.205 0.203v1.928c0 0.112-0.092 0.203-0.205 0.203z"></path>
<path fill="#e1e1e1" style="fill: var(--color2, #e1e1e1)" d="M26.914 13.754h-0.203c-0.113 0-0.205-0.091-0.205-0.203v-1.928c0-0.112 0.092-0.203 0.205-0.203h0.203c0.113 0 0.205 0.091 0.205 0.203v1.928c0 0.112-0.092 0.203-0.205 0.203z"></path>
<path fill="#ececec" style="fill: var(--color1, #ececec)" d="M22.894 12.882h-0.252v-0.65h0.252v0.65z"></path>
<path fill="#ececec" style="fill: var(--color1, #ececec)" d="M27.366 12.882h-0.252v-0.65h0.252v0.65z"></path>
<path fill="#e1e1e1" style="fill: var(--color2, #e1e1e1)" d="M22.856 7.298l-1.516 1.153-0.209-0.27 1.516-1.153 0.209 0.27z"></path>
<path fill="#e1e1e1" style="fill: var(--color2, #e1e1e1)" d="M28.843 16.169l-1.516 1.153-0.209-0.27 1.516-1.153 0.209 0.27z"></path>
<path fill="#e1e1e1" style="fill: var(--color2, #e1e1e1)" d="M7.281 5.356c-0-0-0.001-0.007-0.001-0.020-0-0.014-0.001-0.033-0.001-0.055-0.001-0.051-0.002-0.122-0.003-0.212-0.002-0.186-0.004-0.454-0.007-0.792l0.013 0.013c-0.941 0.002-2.436 0.005-4.119 0.008 0.009-0.009-0.021 0.021 0.021-0.021v0.138c0 0.046 0 0.092 0 0.138-0 0.092-0 0.182-0 0.273-0 0.18-0 0.357-0 0.531l-0.021-0.020c1.173 0.004 2.2 0.007 2.936 0.009 0.367 0.003 0.661 0.004 0.867 0.006 0.1 0.001 0.178 0.002 0.234 0.003 0.025 0 0.045 0.001 0.061 0.001 0.014 0 0.021 0.001 0.022 0.001s-0.006 0.001-0.019 0.001c-0.015 0-0.035 0.001-0.059 0.001-0.055 0.001-0.132 0.002-0.23 0.003-0.204 0.001-0.497 0.003-0.862 0.006-0.74 0.002-1.771 0.006-2.95 0.009l-0.021 0-0-0.020c-0-0.174-0-0.351-0-0.531 0-0.090-0-0.181-0-0.273 0-0.046 0-0.092 0-0.138l-0-0.069v-0.069c0.042-0.042 0.012-0.011 0.021-0.021 1.683 0.003 3.179 0.006 4.119 0.008h0.013l-0 0.013c-0.003 0.341-0.005 0.612-0.007 0.8-0.001 0.090-0.002 0.16-0.003 0.21-0.001 0.022-0.001 0.039-0.001 0.053-0 0.012-0.001 0.018-0.001 0.017z"></path>
<path fill="#e1e1e1" style="fill: var(--color2, #e1e1e1)" d="M7.84 4.277c-0.001-0-0.001-0.007-0.002-0.021-0-0.015-0.001-0.034-0.002-0.057-0.001-0.053-0.002-0.125-0.004-0.216-0.002-0.189-0.005-0.457-0.008-0.785l0.015 0.015c-0.641 0.001-1.514 0.004-2.475 0.006-0.019 0.019 0.025-0.025 0.021-0.021v0.071l-0 0.071c0 0.047 0 0.094-0 0.14 0 0.093-0 0.184-0 0.275-0 0.181-0 0.356-0.001 0.524l-0.020-0.020c0.715 0.004 1.33 0.007 1.771 0.009 0.217 0.002 0.392 0.004 0.516 0.005 0.058 0.001 0.104 0.002 0.139 0.003 0.032 0.001 0.049 0.002 0.050 0.002s-0.015 0.002-0.045 0.002c-0.034 0.001-0.079 0.001-0.135 0.003-0.123 0.001-0.296 0.003-0.511 0.005-0.444 0.002-1.064 0.006-1.784 0.009l-0.020 0-0-0.020c-0-0.168-0-0.343-0.001-0.524-0-0.090-0-0.182-0-0.275-0-0.046-0-0.093-0-0.14v-0.141c-0.005 0.004 0.040-0.039 0.021-0.021 0.961 0.002 1.834 0.004 2.475 0.006h0.015l-0 0.015c-0.003 0.333-0.006 0.603-0.008 0.795-0.002 0.090-0.003 0.161-0.004 0.213-0.001 0.048-0.002 0.073-0.003 0.072z"></path>
<path fill="#e1e1e1" style="fill: var(--color2, #e1e1e1)" d="M6.18 23.644c-0-0-0.001-0.007-0.001-0.020-0-0.014-0.001-0.033-0.001-0.055-0.001-0.051-0.002-0.122-0.003-0.212-0.002-0.186-0.004-0.454-0.007-0.792l0.013 0.013c-0.941 0.002-2.436 0.005-4.119 0.008 0.009-0.009-0.021 0.021 0.021-0.021v0.138c0 0.046 0 0.092 0 0.138-0 0.092-0 0.182-0 0.273-0 0.18-0 0.357-0 0.531l-0.021-0.020c1.173 0.004 2.199 0.007 2.936 0.009 0.367 0.002 0.661 0.004 0.867 0.006 0.1 0.001 0.178 0.002 0.234 0.003 0.025 0 0.045 0.001 0.061 0.001 0.014 0 0.021 0.001 0.022 0.001s-0.006 0.001-0.019 0.001c-0.015 0-0.035 0.001-0.059 0.001-0.055 0.001-0.132 0.002-0.23 0.003-0.204 0.001-0.497 0.003-0.862 0.006-0.74 0.002-1.771 0.006-2.95 0.009l-0.021 0-0-0.020c-0-0.174-0-0.351-0-0.531 0-0.090-0-0.181-0-0.273 0-0.046 0-0.092 0-0.138l-0-0.069v-0.069c0.042-0.042 0.012-0.011 0.021-0.021 1.683 0.003 3.179 0.006 4.119 0.008h0.013l-0 0.013c-0.003 0.341-0.005 0.612-0.007 0.8-0.001 0.090-0.002 0.16-0.003 0.21-0.001 0.022-0.001 0.039-0.001 0.053-0 0.012-0.001 0.018-0.001 0.017z"></path>
<path fill="#e1e1e1" style="fill: var(--color2, #e1e1e1)" d="M6.738 22.564c-0-0-0.001-0.008-0.002-0.021-0-0.015-0.001-0.034-0.002-0.057-0.001-0.053-0.002-0.125-0.004-0.216-0.002-0.189-0.005-0.457-0.008-0.785l0.015 0.015c-0.641 0.002-1.513 0.004-2.475 0.006-0.019 0.019 0.025-0.025 0.021-0.021v0.071l-0 0.071c0 0.047 0 0.094 0 0.14-0 0.093-0 0.184-0 0.275-0 0.181-0 0.356-0.001 0.524l-0.020-0.020c0.715 0.004 1.33 0.007 1.771 0.009 0.217 0.002 0.392 0.004 0.516 0.005 0.058 0.001 0.104 0.002 0.139 0.003 0.032 0.001 0.049 0.002 0.050 0.002s-0.015 0.002-0.045 0.002c-0.034 0.001-0.079 0.002-0.135 0.002-0.123 0.001-0.296 0.003-0.511 0.006-0.444 0.002-1.064 0.006-1.784 0.009l-0.020 0-0-0.020c-0-0.168-0-0.343-0.001-0.524-0-0.090-0-0.182-0-0.275-0-0.046-0-0.093-0-0.14v-0.141c-0.005 0.004 0.040-0.040 0.021-0.021 0.961 0.002 1.834 0.004 2.475 0.006h0.015l-0 0.015c-0.003 0.333-0.006 0.603-0.008 0.795-0.002 0.090-0.003 0.161-0.004 0.213-0.001 0.048-0.002 0.073-0.003 0.072z"></path>
<path fill="#e1e1e1" style="fill: var(--color2, #e1e1e1)" d="M26.84 23.621c-0-0-0.001-0.007-0.001-0.020-0-0.014-0.001-0.033-0.001-0.055-0.001-0.051-0.002-0.122-0.003-0.212-0.002-0.186-0.004-0.454-0.007-0.792l0.013 0.013c-0.941 0.002-2.437 0.005-4.119 0.008 0.009-0.009-0.021 0.021 0.021-0.021v0.138c0 0.046 0 0.092 0 0.138-0 0.092-0 0.182-0 0.273-0 0.18-0 0.357-0 0.531l-0.021-0.020c1.173 0.004 2.2 0.007 2.936 0.009 0.367 0.003 0.661 0.005 0.866 0.006 0.1 0.001 0.178 0.002 0.234 0.003 0.025 0 0.045 0.001 0.061 0.001 0.014 0 0.021 0.001 0.022 0.001s-0.006 0.001-0.019 0.001c-0.015 0-0.035 0.001-0.059 0.001-0.055 0.001-0.132 0.002-0.23 0.003-0.204 0.001-0.497 0.003-0.862 0.006-0.74 0.002-1.771 0.006-2.95 0.009l-0.021 0-0-0.020c-0-0.174-0-0.351-0-0.531 0-0.090-0-0.181-0-0.273 0-0.046 0-0.092 0-0.138l-0-0.069v-0.069c0.042-0.042 0.012-0.012 0.021-0.021 1.683 0.003 3.179 0.006 4.119 0.008h0.013l-0 0.013c-0.003 0.341-0.005 0.612-0.007 0.8-0.001 0.090-0.002 0.159-0.003 0.21-0.001 0.022-0.001 0.039-0.001 0.053-0 0.012-0.001 0.018-0.001 0.017z"></path>
<path fill="#e1e1e1" style="fill: var(--color2, #e1e1e1)" d="M27.398 22.542c-0.001-0.001-0.001-0.008-0.002-0.021-0-0.015-0.001-0.034-0.002-0.057-0.001-0.053-0.002-0.125-0.004-0.216-0.002-0.189-0.005-0.457-0.008-0.785l0.015 0.015c-0.641 0.001-1.514 0.004-2.475 0.006-0.019 0.019 0.025-0.025 0.021-0.021v0.071l-0 0.071c0 0.047 0 0.094 0 0.14-0 0.093-0 0.184-0 0.275-0 0.181-0.001 0.356-0.001 0.524l-0.020-0.020c0.714 0.004 1.33 0.007 1.771 0.009 0.217 0.002 0.392 0.004 0.516 0.005 0.058 0.001 0.104 0.002 0.139 0.002 0.032 0.001 0.049 0.002 0.050 0.002s-0.015 0.002-0.045 0.002c-0.034 0.001-0.079 0.001-0.135 0.002-0.123 0.001-0.296 0.003-0.511 0.006-0.444 0.002-1.064 0.006-1.784 0.009l-0.020 0-0-0.020c-0-0.168-0-0.343-0.001-0.524-0-0.090-0-0.182-0-0.275 0-0.046-0-0.093-0-0.14v-0.141c-0.005 0.004 0.040-0.040 0.021-0.021 0.961 0.002 1.834 0.004 2.475 0.006h0.015l-0 0.015c-0.003 0.333-0.006 0.603-0.008 0.795-0.002 0.090-0.003 0.161-0.004 0.213-0.001 0.048-0.002 0.073-0.003 0.072z"></path>
<path fill="#ececec" style="fill: var(--color1, #ececec)" d="M27.007 25.803h0.941v3.356h-0.941v-3.356z"></path>
<path fill="#ececec" style="fill: var(--color1, #ececec)" d="M26.018 26.072v-1.044c0-0.080 0.065-0.144 0.145-0.144h2.629c0.080 0 0.145 0.064 0.145 0.144v1.044c0 0.080-0.065 0.144-0.145 0.144h-2.629c-0.080 0-0.145-0.064-0.145-0.144z"></path>
<path fill="#e1e1e1" style="fill: var(--color2, #e1e1e1)" d="M26.018 26.072c0.003-0.001-0.003 0.031 0.027 0.077 0.015 0.022 0.041 0.046 0.079 0.056s0.085 0.003 0.137 0.004c0.212-0.001 0.514-0.003 0.887-0.005 0.375-0.001 0.821-0.002 1.316-0.004 0.062-0 0.125-0 0.188-0 0.032-0 0.064-0 0.096-0l0.048-0c0.014 0 0.029-0.003 0.042-0.008 0.056-0.020 0.091-0.076 0.085-0.139-0-0.066-0-0.132-0-0.198-0-0.267-0-0.543-0-0.826 0.001-0.064-0.052-0.122-0.115-0.127-0.067-0.002-0.14-0-0.208-0.001-0.139-0-0.276-0-0.411-0-0.269-0-0.529-0.001-0.777-0.001s-0.483-0.001-0.703-0.002c-0.11-0-0.216-0.001-0.319-0.001-0.051-0-0.101-0-0.15-0.001-0.024-0-0.049-0-0.073-0-0.022-0-0.044 0.005-0.063 0.015-0.038 0.019-0.065 0.057-0.071 0.098-0.004 0.041-0.001 0.086-0.002 0.127-0 0.084-0.001 0.162-0.001 0.236-0.001 0.147-0.002 0.274-0.003 0.378-0.001 0.102-0.002 0.182-0.003 0.239-0.001 0.026-0.001 0.046-0.002 0.062-0.001 0.014-0.001 0.021-0.002 0.021s-0.001-0.007-0.002-0.021c-0-0.016-0.001-0.036-0.002-0.062-0.001-0.057-0.002-0.137-0.003-0.239-0.001-0.104-0.002-0.231-0.003-0.378-0-0.074-0.001-0.153-0.001-0.236 0.001-0.042-0.002-0.083 0.001-0.13 0.006-0.047 0.037-0.092 0.082-0.115 0.022-0.011 0.048-0.018 0.074-0.018 0.024-0 0.048-0 0.073-0 0.049-0 0.099-0 0.15-0.001 0.102-0 0.209-0.001 0.319-0.001 0.22-0 0.456-0.001 0.703-0.002s0.508-0.001 0.777-0.001c0.135-0 0.272-0 0.411-0 0.070 0 0.138-0.001 0.212 0.001 0.080 0.007 0.147 0.080 0.145 0.16-0 0.283-0 0.559-0 0.826-0 0.067-0 0.133-0 0.198 0.008 0.069-0.037 0.147-0.106 0.169-0.017 0.006-0.035 0.010-0.053 0.010h-0.048c-0.032 0-0.064-0-0.096-0-0.063-0-0.126-0-0.188-0-0.495-0.001-0.94-0.003-1.316-0.004-0.373-0.002-0.675-0.004-0.887-0.005-0.026-0-0.051-0-0.074-0.001s-0.046-0-0.066-0.007c-0.040-0.012-0.066-0.039-0.081-0.062s-0.019-0.045-0.021-0.059c-0.001-0.014 0-0.021 0-0.021z"></path>
<path fill="#ececec" style="fill: var(--color1, #ececec)" d="M26.018 30.094v-1.044c0-0.080 0.065-0.144 0.145-0.144h2.629c0.080 0 0.145 0.065 0.145 0.144v1.044c0 0.079-0.065 0.144-0.145 0.144h-2.629c-0.080 0-0.145-0.065-0.145-0.144z"></path>
<path fill="#e1e1e1" style="fill: var(--color2, #e1e1e1)" d="M26.018 30.094c0.003-0.001-0.003 0.031 0.027 0.077 0.015 0.022 0.041 0.046 0.079 0.056s0.085 0.003 0.137 0.004c0.212-0.001 0.514-0.003 0.887-0.005 0.375-0.001 0.821-0.002 1.316-0.004 0.062-0 0.125-0 0.188-0 0.032-0 0.064-0 0.096-0l0.048-0c0.014 0 0.029-0.003 0.042-0.008 0.056-0.020 0.091-0.077 0.085-0.139-0-0.066-0-0.132-0-0.198-0-0.267-0-0.543-0-0.826 0.001-0.064-0.052-0.122-0.115-0.127-0.067-0.002-0.14-0-0.208-0.001-0.139-0-0.276-0-0.411-0-0.269-0-0.529-0.001-0.777-0.001s-0.483-0.001-0.703-0.002c-0.11-0-0.216-0.001-0.319-0.001-0.051-0-0.101-0-0.15-0-0.024-0-0.049-0-0.073-0-0.022-0-0.044 0.005-0.063 0.015-0.038 0.019-0.065 0.057-0.071 0.098-0.004 0.041-0.001 0.086-0.002 0.127-0 0.083-0.001 0.162-0.001 0.236-0.001 0.147-0.002 0.274-0.003 0.378-0.001 0.102-0.002 0.182-0.003 0.239-0.001 0.026-0.001 0.046-0.002 0.062-0.001 0.014-0.001 0.021-0.002 0.021s-0.001-0.007-0.002-0.021c-0-0.016-0.001-0.036-0.002-0.062-0.001-0.057-0.002-0.137-0.003-0.239-0.001-0.105-0.002-0.231-0.003-0.378-0-0.074-0.001-0.153-0.001-0.236 0.001-0.042-0.002-0.083 0.001-0.13 0.006-0.047 0.037-0.092 0.082-0.115 0.022-0.011 0.048-0.018 0.074-0.018 0.024-0 0.048-0 0.073-0 0.049-0 0.099-0 0.15-0 0.102-0 0.209-0.001 0.319-0.001 0.22-0.001 0.456-0.001 0.703-0.002s0.508-0.001 0.777-0.001c0.135-0 0.272-0 0.411-0 0.070 0 0.138-0.001 0.212 0.001 0.080 0.007 0.147 0.080 0.145 0.16-0 0.283-0 0.559-0 0.826-0 0.067-0 0.133-0 0.198 0.008 0.069-0.037 0.147-0.106 0.169-0.017 0.006-0.035 0.010-0.053 0.010l-0.048 0c-0.032 0-0.064-0-0.096-0-0.063-0-0.126-0-0.188-0-0.495-0.001-0.94-0.002-1.316-0.003-0.373-0.002-0.675-0.004-0.887-0.005-0.026-0-0.051-0-0.074-0.001s-0.046-0-0.066-0.007c-0.040-0.012-0.066-0.039-0.081-0.062s-0.019-0.045-0.021-0.059c-0.001-0.014 0-0.021 0-0.021z"></path>
<path fill="#e1e1e1" style="fill: var(--color2, #e1e1e1)" d="M28.115 30.218c-0.009 0-0.017-0.29-0.017-0.647s0.007-0.647 0.017-0.647 0.017 0.29 0.017 0.647c0 0.357-0.008 0.647-0.017 0.647z"></path>
<path fill="#e1e1e1" style="fill: var(--color2, #e1e1e1)" d="M26.893 30.218c-0.009 0-0.017-0.29-0.017-0.647s0.007-0.647 0.017-0.647 0.017 0.29 0.017 0.647c0 0.357-0.008 0.647-0.017 0.647z"></path>
<path fill="#e1e1e1" style="fill: var(--color2, #e1e1e1)" d="M28.115 26.201c-0.009 0-0.017-0.29-0.017-0.647s0.007-0.647 0.017-0.647 0.017 0.29 0.017 0.647c0 0.357-0.008 0.647-0.017 0.647z"></path>
<path fill="#e1e1e1" style="fill: var(--color2, #e1e1e1)" d="M26.893 26.201c-0.009 0-0.017-0.29-0.017-0.647s0.007-0.647 0.017-0.647 0.017 0.29 0.017 0.647c0 0.357-0.008 0.647-0.017 0.647z"></path>
<path fill="#f5f5f5" style="fill: var(--color4, #f5f5f5)" d="M4.778 7.751l0.074-0.234c0.623-1.973 2.265-3.472 4.299-3.837 0.262-0.047 0.527-0.075 0.793-0.083 1.917-0.060 3.842 0.917 4.935 2.503 0.643 0.933 1.046 2.090 1.982 2.726 1.219 0.828 2.847 0.465 4.26 0.072s3.043-0.752 4.258 0.081c0.761 0.522 1.187 1.425 1.362 2.331 0.463 2.398-0.673 4.921-2.528 6.491s-4.323 2.275-6.755 2.379c-3.407 0.146-6.937-0.878-9.478-3.173s-3.945-5.926-3.201-9.257z"></path>
<path fill="#1a2e35" style="fill: var(--color5, #1a2e35)" d="M30.209 30.238c0 0.009-6.306 0.017-14.084 0.017-7.78 0-14.085-0.007-14.085-0.017s6.305-0.017 14.085-0.017c7.778 0 14.084 0.007 14.084 0.017z"></path>
<path fill="#375a64" style="fill: var(--color6, #375a64)" d="M25.447 29.242h-3.387v-0.98h3.387v0.98z"></path>
<path fill="#375a64" style="fill: var(--color6, #375a64)" d="M22.331 30.238h-1.053c-0.080 0-0.145-0.064-0.145-0.144v-2.605c0-0.079 0.065-0.144 0.145-0.144h1.053c0.080 0 0.145 0.065 0.145 0.144v2.605c0 0.080-0.065 0.144-0.145 0.144z"></path>
<path fill="#1a2e35" style="fill: var(--color5, #1a2e35)" d="M22.331 30.238c-0.001-0.003 0.032 0.003 0.078-0.026 0.022-0.015 0.046-0.040 0.057-0.078s0.003-0.084 0.004-0.136c-0.001-0.21-0.003-0.509-0.005-0.879-0.001-0.372-0.002-0.813-0.004-1.303-0-0.061-0-0.123-0-0.186-0-0.031-0-0.063-0-0.095l-0-0.047c0-0.014-0.003-0.028-0.008-0.042-0.020-0.055-0.077-0.091-0.14-0.084-0.066 0-0.133 0-0.2 0-0.269 0-0.548 0-0.834 0-0.064-0.001-0.123 0.051-0.128 0.114-0.002 0.066-0 0.138-0.001 0.206-0 0.138-0 0.274-0 0.407-0 0.267-0.001 0.524-0.001 0.77s-0.001 0.478-0.002 0.697c-0 0.109-0.001 0.214-0.001 0.316-0 0.051-0 0.1-0 0.149-0 0.024-0 0.048-0 0.072-0 0.022 0.005 0.043 0.015 0.062 0.020 0.038 0.058 0.065 0.098 0.070 0.041 0.003 0.087 0.001 0.128 0.002 0.084 0 0.164 0.001 0.238 0.001 0.148 0.001 0.276 0.002 0.382 0.003 0.103 0.001 0.184 0.002 0.241 0.003 0.026 0.001 0.047 0.001 0.063 0.002 0.014 0.001 0.021 0.001 0.021 0.002s-0.007 0.001-0.021 0.002c-0.016 0-0.037 0.001-0.063 0.002-0.057 0.001-0.138 0.002-0.241 0.003-0.105 0.001-0.233 0.002-0.382 0.003-0.074 0-0.154 0.001-0.238 0.001-0.043-0.001-0.084 0.002-0.132-0.001-0.048-0.006-0.093-0.037-0.116-0.082-0.012-0.022-0.018-0.048-0.018-0.073-0-0.024-0-0.048-0-0.072-0-0.049-0-0.098-0-0.149-0-0.101-0.001-0.207-0.001-0.316-0-0.218-0.001-0.451-0.002-0.697s-0.001-0.503-0.001-0.77c-0-0.133-0-0.269-0-0.407 0-0.070-0.001-0.137 0.001-0.21 0.007-0.079 0.080-0.145 0.161-0.144 0.286 0 0.565 0 0.834 0 0.067 0 0.134 0 0.2 0 0.070-0.008 0.148 0.037 0.17 0.105 0.006 0.017 0.010 0.034 0.010 0.052l0 0.048c0 0.032-0 0.063-0 0.095-0 0.063-0 0.125-0 0.186-0.001 0.49-0.003 0.932-0.004 1.303-0.002 0.369-0.004 0.669-0.005 0.879-0 0.026-0.001 0.050-0.001 0.073s-0 0.046-0.007 0.065c-0.013 0.040-0.039 0.066-0.063 0.081s-0.046 0.019-0.060 0.021c-0.014 0.001-0.022 0-0.022 0z"></path>
<path fill="#375a64" style="fill: var(--color6, #375a64)" d="M26.39 30.238h-1.053c-0.080 0-0.145-0.064-0.145-0.144v-2.605c0-0.079 0.065-0.144 0.145-0.144h1.053c0.080 0 0.145 0.065 0.145 0.144v2.605c0 0.080-0.065 0.144-0.145 0.144z"></path>
<path fill="#1a2e35" style="fill: var(--color5, #1a2e35)" d="M26.39 30.238c-0.001-0.003 0.032 0.003 0.078-0.026 0.022-0.015 0.046-0.040 0.057-0.078s0.003-0.084 0.004-0.136c-0.001-0.21-0.003-0.509-0.005-0.879-0.001-0.372-0.002-0.813-0.004-1.303-0-0.061-0-0.123-0-0.186-0-0.031-0-0.063-0-0.095l-0-0.047c0-0.014-0.003-0.028-0.008-0.042-0.020-0.055-0.077-0.091-0.14-0.084-0.066 0-0.133 0-0.2 0-0.269 0-0.548 0-0.834 0-0.064-0.001-0.123 0.051-0.128 0.114-0.002 0.066-0 0.138-0.001 0.206-0 0.138-0 0.274-0 0.407-0 0.267-0.001 0.524-0.001 0.77s-0.001 0.478-0.002 0.697c-0 0.109-0.001 0.214-0.001 0.316-0 0.051-0 0.1-0 0.149-0 0.024-0 0.048-0 0.072-0 0.022 0.005 0.043 0.015 0.062 0.020 0.038 0.058 0.065 0.098 0.070 0.041 0.003 0.087 0.001 0.128 0.002 0.084 0 0.164 0.001 0.238 0.001 0.148 0.001 0.276 0.002 0.382 0.003 0.103 0.001 0.184 0.002 0.241 0.003 0.026 0.001 0.047 0.001 0.063 0.002 0.014 0.001 0.021 0.001 0.021 0.002s-0.007 0.001-0.021 0.002c-0.016 0-0.037 0.001-0.063 0.002-0.057 0.001-0.138 0.002-0.241 0.003-0.105 0.001-0.233 0.002-0.382 0.003-0.074 0-0.154 0.001-0.238 0.001-0.043-0.001-0.084 0.002-0.132-0.001-0.048-0.006-0.093-0.037-0.116-0.082-0.012-0.022-0.018-0.048-0.018-0.073-0-0.024-0-0.048-0-0.072-0-0.049-0-0.098-0-0.149-0-0.101-0.001-0.207-0.001-0.316-0-0.218-0.001-0.451-0.002-0.697s-0.001-0.503-0.001-0.77c-0-0.133-0-0.269-0-0.407 0-0.070-0.001-0.137 0.001-0.21 0.007-0.079 0.080-0.145 0.161-0.144 0.286 0 0.565 0 0.834 0 0.067 0 0.134 0 0.2 0 0.070-0.008 0.148 0.037 0.17 0.105 0.006 0.017 0.010 0.034 0.010 0.052l0 0.048c0 0.032-0 0.063-0 0.095-0 0.063-0 0.125-0 0.186-0.001 0.49-0.003 0.932-0.004 1.303-0.002 0.369-0.004 0.669-0.005 0.879-0 0.026-0.001 0.050-0.001 0.073s-0 0.046-0.007 0.065c-0.013 0.040-0.039 0.066-0.063 0.081s-0.046 0.019-0.060 0.021c-0.014 0.001-0.022 0-0.022 0z"></path>
<path fill="#1a2e35" style="fill: var(--color5, #1a2e35)" d="M26.517 28.16c0 0.009-0.292 0.017-0.653 0.017s-0.653-0.007-0.653-0.017c0-0.009 0.292-0.017 0.653-0.017s0.653 0.007 0.653 0.017z"></path>
<path fill="#1a2e35" style="fill: var(--color5, #1a2e35)" d="M26.517 29.371c0 0.009-0.292 0.017-0.653 0.017s-0.653-0.007-0.653-0.017c0-0.009 0.292-0.017 0.653-0.017s0.653 0.007 0.653 0.017z"></path>
<path fill="#1a2e35" style="fill: var(--color5, #1a2e35)" d="M22.462 28.16c0 0.009-0.292 0.017-0.653 0.017s-0.653-0.007-0.653-0.017c0-0.009 0.292-0.017 0.653-0.017s0.653 0.007 0.653 0.017z"></path>
<path fill="#1a2e35" style="fill: var(--color5, #1a2e35)" d="M22.462 29.371c0 0.009-0.292 0.017-0.653 0.017s-0.653-0.007-0.653-0.017c0-0.009 0.292-0.017 0.653-0.017s0.653 0.007 0.653 0.017z"></path>
<path fill="#c17560" style="fill: var(--color7, #c17560)" d="M17.546 12.696c0 0 1.644 0.372 1.815 1.566 0.186 1.297-0.185 3.908-0.138 4.342s0.052 0.79 0.052 0.79l3.339 1.77-0.68 0.893c0 0-2.965-0.116-3.749-0.688s-0.946-1.28-0.923-1.92c0.023-0.64-0.002-4.136-0.002-4.136l0.286-2.618z"></path>
<path fill="#7c4236" style="fill: var(--color8, #7c4236)" d="M18.682 15.048c0.008 0.006-0.118 0.186-0.254 0.419s-0.23 0.431-0.239 0.428c-0.004-0.002 0.014-0.054 0.051-0.135s0.091-0.191 0.16-0.309c0.068-0.118 0.137-0.22 0.19-0.292s0.089-0.114 0.093-0.111z"></path>
<path fill="#ff735d" style="fill: var(--color9, #ff735d)" d="M27.478 20.963c0 0.745-0.444 1.35-0.992 1.35-0.225 0-0.815-0.002-0.815-0.002-0.238-0.246-0.176-0.908-0.176-1.347 0-0.406-0.126-1.094 0.083-1.342 0 0 0.659-0.008 0.909-0.008 0.548 0 0.992 0.604 0.992 1.35z"></path>
<path fill="#000" style="fill: var(--color10, #000)" opacity="0.300003" d="M27.478 20.963c0 0.745-0.444 1.35-0.992 1.35-0.225 0-0.815-0.002-0.815-0.002-0.238-0.246-0.176-0.908-0.176-1.347 0-0.406-0.126-1.094 0.083-1.342 0 0 0.659-0.008 0.909-0.008 0.548 0 0.992 0.604 0.992 1.35z"></path>
<path fill="#ff735d" style="fill: var(--color9, #ff735d)" d="M26.435 20.961c0 0.745-0.342 1.35-0.764 1.35s-0.764-0.604-0.764-1.35 0.342-1.35 0.764-1.35c0.422 0 0.764 0.604 0.764 1.35z"></path>
<path fill="#ff735d" style="fill: var(--color9, #ff735d)" d="M26.12 21.428h-2.775c-0.121 0-0.219-0.097-0.219-0.217v-0.266c0-0.12 0.098-0.217 0.219-0.217h2.775c0.121 0 0.219 0.097 0.219 0.217v0.266c0 0.12-0.098 0.217-0.219 0.217z"></path>
<path fill="#c17560" style="fill: var(--color7, #c17560)" d="M25.862 20.337c-0.073-0.128-0.25-0.364-0.25-0.364-0.267-0.258-0.504-0.033-0.504-0.033-0.132-0.108-0.292-0.068-0.401 0.052-0.302-0.154-0.465 0.208-0.465 0.208-0.582-0.033-0.454 0.527-0.454 0.527s0.164 0.013 0.166 0.027c0.022 0.215-0.286 0.631-0.286 0.631l-0.661 0.672 1.065-0.017c0.186 0.065 0.356 0.050 0.494-0.141 0.293 0.213 0.431-0.051 0.431-0.051 0.276 0.184 0.438-0.094 0.438-0.094s0.278 0.132 0.364-0.393c0.031-0.192 0.138-0.897 0.065-1.025z"></path>
<path fill="#7c4236" style="fill: var(--color8, #7c4236)" d="M24.377 21.346c-0.005-0.002 0.026-0.072 0.069-0.188s0.096-0.277 0.137-0.459c0.010-0.045 0.016-0.090 0.012-0.131s-0.017-0.081-0.036-0.115c-0.038-0.068-0.096-0.114-0.147-0.148-0.103-0.066-0.174-0.099-0.171-0.104 0.001-0.002 0.019 0.004 0.051 0.018s0.078 0.034 0.132 0.067c0.053 0.032 0.118 0.078 0.161 0.153 0.022 0.037 0.035 0.081 0.041 0.127s-0.002 0.095-0.012 0.141c-0.041 0.185-0.099 0.347-0.148 0.461s-0.087 0.181-0.091 0.179z"></path>
<path fill="#7c4236" style="fill: var(--color8, #7c4236)" d="M24.95 21.21c-0.005-0.002 0.022-0.075 0.049-0.197 0.014-0.065 0.029-0.137 0.045-0.216 0.018-0.081 0.041-0.17 0.043-0.263s-0.035-0.177-0.082-0.243c-0.047-0.066-0.103-0.116-0.15-0.159-0.095-0.083-0.153-0.137-0.149-0.14s0.065 0.044 0.165 0.122c0.049 0.041 0.108 0.090 0.159 0.159s0.093 0.159 0.091 0.261c-0.002 0.099-0.027 0.189-0.047 0.27s-0.036 0.154-0.052 0.215c-0.017 0.061-0.034 0.11-0.048 0.142s-0.023 0.050-0.025 0.049z"></path>
<path fill="#7c4236" style="fill: var(--color8, #7c4236)" d="M25.435 21.090c-0.004-0.001 0.014-0.076 0.048-0.197 0.018-0.063 0.038-0.134 0.060-0.211 0.021-0.078 0.040-0.168 0.021-0.257s-0.069-0.166-0.123-0.226c-0.055-0.060-0.114-0.104-0.166-0.139-0.104-0.069-0.173-0.106-0.17-0.111 0.001-0.002 0.019 0.005 0.051 0.020s0.077 0.038 0.132 0.071c0.054 0.033 0.117 0.076 0.176 0.138s0.112 0.142 0.133 0.24c0.021 0.099-0.001 0.193-0.024 0.272-0.024 0.080-0.048 0.15-0.067 0.209-0.040 0.119-0.066 0.191-0.071 0.19z"></path>
<path fill="#7c4236" style="fill: var(--color8, #7c4236)" d="M19.284 19.398c0.006 0.010-0.209 0.105-0.414 0.301-0.207 0.194-0.313 0.402-0.322 0.396-0.003-0.002 0.018-0.056 0.067-0.136s0.127-0.185 0.232-0.284c0.105-0.099 0.214-0.172 0.297-0.217s0.138-0.064 0.14-0.060z"></path>
<path fill="#ff735d" style="fill: var(--color9, #ff735d)" d="M23.74 21.064c0 0.745-0.444 1.35-0.992 1.35-0.225 0-0.815-0.002-0.815-0.002-0.239-0.246-0.176-0.908-0.176-1.347 0-0.406-0.126-1.094 0.083-1.342 0 0 0.659-0.008 0.909-0.008 0.548 0 0.992 0.604 0.992 1.35z"></path>
<path fill="#000" style="fill: var(--color10, #000)" opacity="0.300003" d="M23.74 21.064c0 0.745-0.444 1.35-0.992 1.35-0.225 0-0.815-0.002-0.815-0.002-0.239-0.246-0.176-0.908-0.176-1.347 0-0.406-0.126-1.094 0.083-1.342 0 0 0.659-0.008 0.909-0.008 0.548 0 0.992 0.604 0.992 1.35z"></path>
<path fill="#ff735d" style="fill: var(--color9, #ff735d)" d="M22.698 21.061c0 0.745-0.342 1.35-0.764 1.35s-0.764-0.604-0.764-1.35c0-0.745 0.342-1.35 0.764-1.35s0.764 0.604 0.764 1.35z"></path>
<path fill="#1a2e35" style="fill: var(--color5, #1a2e35)" d="M22.586 21.061c-0.001 0-0.001-0.005-0.002-0.015-0.001-0.012-0.002-0.027-0.003-0.045-0.001-0.040-0.006-0.098-0.014-0.172-0.006-0.037-0.012-0.078-0.019-0.123-0.011-0.044-0.018-0.093-0.033-0.144-0.027-0.103-0.067-0.218-0.131-0.334-0.034-0.057-0.071-0.117-0.121-0.17-0.047-0.055-0.107-0.102-0.176-0.136s-0.151-0.048-0.231-0.033c-0.081 0.015-0.156 0.059-0.22 0.118-0.129 0.118-0.216 0.288-0.274 0.47-0.058 0.183-0.084 0.382-0.086 0.585 0.002 0.203 0.028 0.402 0.086 0.585 0.058 0.181 0.145 0.352 0.274 0.47 0.064 0.059 0.14 0.103 0.22 0.118s0.162 0.001 0.231-0.033c0.069-0.034 0.129-0.081 0.176-0.136 0.049-0.053 0.087-0.112 0.12-0.17 0.065-0.117 0.105-0.232 0.131-0.334 0.016-0.051 0.023-0.1 0.033-0.144 0.007-0.045 0.013-0.086 0.019-0.123 0.008-0.074 0.013-0.132 0.014-0.172 0.001-0.018 0.002-0.033 0.003-0.045 0.001-0.010 0.002-0.015 0.002-0.015s0.001 0.005 0.001 0.015c0 0.012 0 0.027 0 0.045 0.001 0.040-0.002 0.098-0.008 0.173-0.004 0.037-0.010 0.079-0.016 0.124-0.010 0.045-0.016 0.095-0.031 0.146-0.025 0.104-0.064 0.221-0.129 0.341-0.034 0.059-0.072 0.12-0.122 0.175-0.048 0.057-0.11 0.108-0.184 0.144s-0.162 0.053-0.249 0.037c-0.087-0.016-0.168-0.063-0.236-0.124-0.136-0.124-0.225-0.298-0.285-0.483-0.060-0.186-0.087-0.388-0.088-0.595 0.002-0.206 0.029-0.408 0.088-0.595 0.060-0.185 0.149-0.359 0.285-0.483 0.067-0.061 0.148-0.108 0.236-0.124s0.176 0 0.249 0.037c0.073 0.036 0.136 0.087 0.184 0.144 0.050 0.055 0.088 0.116 0.122 0.175 0.065 0.12 0.104 0.237 0.129 0.341 0.015 0.052 0.021 0.101 0.031 0.146 0.006 0.046 0.012 0.087 0.016 0.124 0.006 0.075 0.009 0.134 0.008 0.173-0 0.018-0 0.033-0 0.045-0 0.010-0.001 0.015-0.001 0.015z"></path>
<path fill="#1a2e35" style="fill: var(--color5, #1a2e35)" d="M21.911 21.2l-0.046 0.003 0.006 0.082-0.064 0.005-0.006-0.082-0.152 0.011-0.004-0.061 0.115-0.257 0.069-0.005-0.106 0.243 0.076-0.005-0.005-0.073 0.062-0.004 0.005 0.073 0.046-0.003 0.005 0.074z"></path>
<path fill="#1a2e35" style="fill: var(--color5, #1a2e35)" d="M22.034 21.155l-0.027 0.043 0.006 0.076-0.063 0.004-0.030-0.413 0.063-0.004 0.017 0.234 0.083-0.127 0.075-0.005-0.081 0.134 0.111 0.166-0.076 0.005-0.077-0.113z"></path>
<path fill="#1a2e35" style="fill: var(--color5, #1a2e35)" d="M15.067 4.609c0.313-0.243 0.333-0.739 0.12-1.072s-0.601-0.521-0.989-0.607c-0.601-0.134-1.29-0.037-1.725 0.395s-0.489 1.239-0.012 1.626c-0.275 0.021-0.565 0.048-0.789 0.207s-0.339 0.502-0.163 0.712c0.2 0.24 0.585 0.15 0.878 0.039-0.193 0.121-0.223 0.413-0.097 0.601s0.367 0.277 0.595 0.274c0.228-0.003 0.448-0.084 0.657-0.174z"></path>
<path fill="#ff735d" style="fill: var(--color9, #ff735d)" d="M14.108 4.702c0.113-0.135 0.229-0.271 0.379-0.365s0.34-0.14 0.506-0.080c0.078 0.028 0.153 0.087 0.167 0.168s-0.061 0.174-0.141 0.154l-0.020 0.012c-0.209 0.13-0.42 0.256-0.634 0.377-0.054 0.031-0.11 0.062-0.171 0.070s-0.131-0.012-0.164-0.064c-0.055-0.086 0.014-0.195 0.080-0.273z"></path>
<path fill="#1a2e35" style="fill: var(--color5, #1a2e35)" d="M13.665 5.237c0.729-0.635 1.614-0.925 2.574-0.784 0.542 0.080 0.747 0.228 1.119 0.395s0.688 0.432 0.866 0.796c0.211 0.433 0.37 0.905 0.344 1.385-0.027 0.493-0.055 0.989-0.173 1.469s-0.333 0.947-0.687 1.294l-1.283 0.011c-0.693-0.090-1.878 0.588-2.523 0.323s-1.064-1.457-1.152-2.173c-0.117-0.955 0.186-2.082 0.915-2.717z"></path>
<path fill="#c17560" style="fill: var(--color7, #c17560)" d="M16.064 11.999c0.064-0.435 0.14-0.981 0.14-0.979 0 0 1.036 0.056 1.532-1.19 0.247-0.62 0.45-1.68 0.589-2.553 0.124-0.786-0.372-1.964-1.349-2.128l-0.426-0.121-1.773 0.383c-0.242-0.027-0.465 0.134-0.513 0.37l-1.010 5.845 0.772 1.764 1.911-0.733 0.128-0.658z"></path>
<path fill="#7c4236" style="fill: var(--color8, #7c4236)" d="M15.831 9.207c0.020-0.067 0.069-0.121 0.124-0.154 0.111-0.067 0.255-0.052 0.347 0.037s0.128 0.244 0.085 0.377c-0.072 0.070-0.17 0.109-0.271 0.102-0.016-0.001-0.031-0.003-0.047-0.006-0.075-0.014-0.147-0.052-0.195-0.116s-0.069-0.157-0.044-0.239z"></path>
<path fill="#1a2e35" style="fill: var(--color5, #1a2e35)" d="M17.756 8.246c-0.017 0.088-0.105 0.147-0.199 0.132s-0.155-0.099-0.139-0.187c0.017-0.088 0.105-0.147 0.198-0.132s0.156 0.099 0.139 0.187z"></path>
<path fill="#1a2e35" style="fill: var(--color5, #1a2e35)" d="M17.954 7.664c-0.026 0.017-0.131-0.104-0.311-0.143-0.179-0.042-0.332 0.021-0.346-0.005-0.008-0.012 0.022-0.046 0.089-0.075s0.171-0.048 0.283-0.023c0.112 0.025 0.197 0.087 0.242 0.141s0.056 0.098 0.043 0.105z"></path>
<path fill="#1a2e35" style="fill: var(--color5, #1a2e35)" d="M16.552 8.884c0.001-0.010 0.118-0.005 0.304 0.012 0.047 0.005 0.093 0.006 0.107-0.024 0.018-0.030 0.010-0.084-0-0.142-0.018-0.12-0.038-0.245-0.058-0.376-0.078-0.535-0.124-0.971-0.102-0.974s0.103 0.428 0.181 0.963c0.018 0.132 0.036 0.257 0.052 0.377 0.006 0.056 0.023 0.121-0.016 0.184-0.020 0.031-0.059 0.049-0.090 0.050s-0.057-0.003-0.080-0.006c-0.184-0.030-0.298-0.055-0.296-0.065z"></path>
<path fill="#7c4236" style="fill: var(--color8, #7c4236)" d="M16.204 11.020c0 0-0.889-0.137-1.642-0.845 0 0 0.264 0.998 1.596 1.164l0.046-0.318z"></path>
<path fill="#1a2e35" style="fill: var(--color5, #1a2e35)" d="M15.995 8.89c0.030 0.005-0.013 0.198 0.123 0.372s0.349 0.198 0.344 0.226c0 0.013-0.055 0.027-0.143 0.010-0.087-0.016-0.207-0.071-0.29-0.178s-0.102-0.229-0.091-0.309c0.011-0.083 0.043-0.126 0.056-0.122z"></path>
<path fill="#1a2e35" style="fill: var(--color5, #1a2e35)" d="M17.997 7.301c-0.040 0.037-0.171-0.023-0.335-0.045-0.163-0.027-0.307-0.010-0.333-0.056-0.011-0.023 0.016-0.061 0.081-0.093s0.169-0.051 0.281-0.034c0.112 0.017 0.205 0.066 0.257 0.116 0.053 0.050 0.066 0.094 0.049 0.112z"></path>
<path fill="#1a2e35" style="fill: var(--color5, #1a2e35)" d="M15.715 7.853c-0.019 0.088 0.039 0.176 0.131 0.198s0.182-0.031 0.201-0.119c0.019-0.088-0.039-0.176-0.131-0.198s-0.182 0.031-0.202 0.119z"></path>
<path fill="#1a2e35" style="fill: var(--color5, #1a2e35)" d="M15.509 7.192c0.017 0.026 0.162-0.045 0.343-0.012 0.181 0.031 0.297 0.147 0.321 0.129 0.011-0.008-0.003-0.051-0.053-0.103s-0.139-0.11-0.252-0.13c-0.113-0.020-0.216 0.004-0.278 0.036-0.064 0.032-0.090 0.068-0.081 0.080z"></path>
<path fill="#1a2e35" style="fill: var(--color5, #1a2e35)" d="M15.714 6.634c0.028 0.047 0.176 0.030 0.344 0.059 0.169 0.023 0.306 0.084 0.346 0.047 0.018-0.018 0.003-0.063-0.052-0.113s-0.151-0.1-0.267-0.118c-0.116-0.018-0.223 0.001-0.289 0.032-0.067 0.031-0.095 0.070-0.082 0.092z"></path>
<path fill="#c17560" style="fill: var(--color7, #c17560)" d="M14.124 8.008c0.021-0.096-0.040-0.348-0.133-0.384-0.247-0.096-0.713-0.177-0.862 0.466-0.203 0.879 0.73 0.9 0.737 0.875 0.006-0.019 0.184-0.626 0.257-0.958z"></path>
<path fill="#7c4236" style="fill: var(--color8, #7c4236)" d="M13.696 8.589c-0.003-0.004-0.018 0.007-0.047 0.013s-0.074 0.004-0.116-0.024c-0.086-0.055-0.131-0.221-0.098-0.38 0.016-0.081 0.051-0.153 0.094-0.21 0.042-0.058 0.094-0.094 0.143-0.091 0.049-0 0.076 0.035 0.082 0.063 0.006 0.027-0.003 0.044 0.001 0.046 0.002 0.003 0.022-0.010 0.024-0.048 0-0.018-0.005-0.041-0.022-0.063s-0.047-0.038-0.080-0.042c-0.070-0.011-0.146 0.038-0.193 0.1-0.051 0.062-0.092 0.142-0.11 0.233-0.035 0.178 0.018 0.365 0.138 0.431 0.059 0.030 0.115 0.023 0.147 0.009s0.042-0.034 0.039-0.036z"></path>
<path fill="#1a2e35" style="fill: var(--color5, #1a2e35)" d="M13.955 7.621l0.189 0.271c1.139-0.772 3.451-2.793 3.321-2.671 0 0-0.628-0.385-1.38-0.381s-2.2 0.139-2.321 0.997c-0.121 0.858 0.192 1.784 0.192 1.784z"></path>
<path fill="#375a64" style="fill: var(--color6, #375a64)" d="M12.685 7.212c-0.001-0.001 0.006-0.018 0.022-0.049s0.043-0.076 0.084-0.13c0.082-0.107 0.227-0.246 0.444-0.356 0.215-0.115 0.498-0.191 0.814-0.236 0.316-0.048 0.667-0.068 1.022-0.154 0.357-0.081 0.684-0.208 0.968-0.347 0.283-0.141 0.524-0.296 0.715-0.439s0.335-0.274 0.432-0.366c0.045-0.044 0.082-0.080 0.11-0.108 0.026-0.024 0.039-0.037 0.041-0.036s-0.010 0.016-0.034 0.042c-0.024 0.026-0.057 0.066-0.104 0.114-0.094 0.096-0.235 0.231-0.425 0.379s-0.431 0.307-0.716 0.451c-0.286 0.142-0.616 0.271-0.976 0.353-0.36 0.088-0.713 0.106-1.026 0.152-0.314 0.042-0.593 0.114-0.805 0.223-0.215 0.105-0.36 0.237-0.445 0.339-0.085 0.103-0.117 0.17-0.121 0.168z"></path>
<path fill="#375a64" style="fill: var(--color6, #375a64)" d="M12.922 7.394c0 0 0.003-0.074 0.067-0.188 0.062-0.114 0.195-0.26 0.407-0.363 0.21-0.108 0.492-0.15 0.797-0.168 0.306-0.016 0.639-0.046 0.978-0.14 0.338-0.093 0.649-0.221 0.913-0.371 0.265-0.148 0.486-0.311 0.66-0.46 0.176-0.148 0.301-0.286 0.389-0.38 0.039-0.045 0.071-0.082 0.097-0.112 0.023-0.025 0.035-0.038 0.036-0.037s-0.009 0.016-0.029 0.043c-0.024 0.031-0.054 0.070-0.090 0.118-0.084 0.097-0.206 0.24-0.381 0.392-0.173 0.154-0.394 0.321-0.661 0.473-0.266 0.154-0.58 0.285-0.922 0.379-0.342 0.095-0.683 0.124-0.988 0.138-0.304 0.016-0.579 0.054-0.785 0.155-0.207 0.097-0.34 0.235-0.405 0.343-0.067 0.108-0.077 0.181-0.083 0.179z"></path>
<path fill="#c17560" style="fill: var(--color7, #c17560)" d="M10.444 15.484c0.036 0.069 0.036 0.92 0.199 1.875s0.989 2.905 0.989 2.905l-0.171 1.323 7.182 0.813-0.864-2.291 0.095-2.158c0 0 0.55-0.603 0.317-2.214s-0.568-2.994-0.568-2.994l-0.578-0.244-0.738-0.271-2.756-0.855-1.509-0.177-1.446 2.953-0.152 1.335z"></path>
<path fill="#69b99d" style="fill: var(--color11, #69b99d)" d="M10.902 18.385c0 0 0.529-0.371 1.799-0.398s5.014 0.597 5.014 0.597l0.134-0.488c0 0 0.906-1.367 0.246-2.944-0.704-1.681-0.463-2.447-0.463-2.447l-0.587-0.206c0 0-0.588 1.148-1.089 1.426-0.565 0.314-1.606 0.299-2.523-0.891-0.645-0.837-0.656-1.778-0.656-1.778l-0.69-0.059c0 0-0.16 1.769-0.505 2.59s-1.218 2.538-1.218 2.538 0.368 1.829 0.538 2.061z"></path>
<path fill="#1a2e35" style="fill: var(--color5, #1a2e35)" d="M11.386 21.59c-0.046 0.115-0.79 2.094-0.883 3.705s-0.116 3.625 0.232 4.942h4.111c0 0 0.342-2.912 0.459-3.050s0.232-0.182 0.279 0.346c0.046 0.528-0.087 2.704-0.087 2.704h3.996c0 0 0.115-3.621 0.022-4.512-0.059-0.564-0.248-1.491-0.379-2.095-0.082-0.378-0.194-0.748-0.336-1.107l-0.466-1.178-6.948 0.245z"></path>
<path fill="#375a64" style="fill: var(--color6, #375a64)" d="M18.643 22.128c0 0.001-0.007 0.001-0.019 0.002-0.015 0.001-0.034 0.001-0.057 0.002-0.053 0.001-0.126 0.003-0.22 0.005-0.191 0.002-0.467 0.010-0.808 0.022-0.682 0.023-1.623 0.080-2.661 0.152s-1.981 0.125-2.663 0.143c-0.341 0.009-0.617 0.013-0.808 0.012-0.094-0.001-0.167-0.001-0.22-0.002-0.024-0-0.042-0.001-0.057-0.001-0.013-0-0.019-0.001-0.019-0.002s0.007-0.001 0.019-0.002c0.015-0 0.034-0.001 0.057-0.002 0.053-0.001 0.126-0.003 0.22-0.005 0.191-0.002 0.467-0.010 0.808-0.022 0.682-0.023 1.623-0.080 2.662-0.152s1.98-0.125 2.663-0.143c0.341-0.009 0.617-0.013 0.808-0.012 0.094 0.001 0.167 0.001 0.22 0.002 0.024 0 0.042 0.001 0.057 0.001 0.013 0 0.019 0.001 0.019 0.002z"></path>
<path fill="#fff" style="fill: var(--color3, #fff)" d="M11.817 22.461c0.001 0-0 0.007-0.003 0.020-0.003 0.015-0.007 0.034-0.012 0.058-0.011 0.053-0.028 0.128-0.048 0.223-0.022 0.097-0.048 0.215-0.074 0.354s-0.060 0.295-0.089 0.47c-0.015 0.087-0.031 0.179-0.047 0.274s-0.029 0.195-0.045 0.298c-0.033 0.206-0.057 0.427-0.086 0.66-0.050 0.466-0.090 0.98-0.107 1.52-0.014 0.541-0.003 1.056 0.021 1.524 0.016 0.234 0.028 0.456 0.051 0.663 0.010 0.104 0.018 0.204 0.030 0.3s0.023 0.188 0.034 0.276c0.019 0.176 0.047 0.334 0.067 0.474s0.041 0.259 0.059 0.357c0.017 0.096 0.030 0.171 0.039 0.225 0.004 0.024 0.007 0.044 0.009 0.059 0.002 0.013 0.003 0.020 0.002 0.020s-0.002-0.007-0.005-0.020c-0.003-0.015-0.007-0.034-0.013-0.058-0.011-0.053-0.026-0.128-0.045-0.224-0.020-0.097-0.043-0.216-0.064-0.356s-0.051-0.297-0.072-0.474c-0.012-0.088-0.024-0.18-0.036-0.276s-0.021-0.197-0.032-0.3c-0.024-0.207-0.037-0.43-0.054-0.664-0.026-0.469-0.038-0.985-0.024-1.527 0.017-0.542 0.058-1.056 0.11-1.523 0.029-0.233 0.055-0.454 0.089-0.66 0.016-0.103 0.030-0.203 0.047-0.298s0.034-0.187 0.050-0.274c0.030-0.175 0.065-0.332 0.094-0.47s0.056-0.257 0.079-0.353c0.023-0.095 0.041-0.169 0.054-0.222 0.006-0.024 0.011-0.043 0.015-0.058 0.004-0.013 0.006-0.019 0.006-0.019z"></path>
<path fill="#fff" style="fill: var(--color3, #fff)" d="M11.461 22.501c0.001 0-0 0.007-0.003 0.020-0.003 0.015-0.007 0.034-0.012 0.058-0.011 0.053-0.027 0.127-0.048 0.222-0.022 0.096-0.047 0.214-0.073 0.352s-0.059 0.294-0.087 0.468c-0.015 0.087-0.030 0.178-0.046 0.273s-0.028 0.194-0.043 0.297c-0.031 0.205-0.055 0.425-0.081 0.657-0.046 0.464-0.082 0.975-0.093 1.513-0.009 0.538 0.007 1.051 0.035 1.516 0.018 0.232 0.032 0.454 0.056 0.66 0.011 0.103 0.019 0.203 0.032 0.298s0.024 0.187 0.035 0.275c0.020 0.175 0.048 0.332 0.069 0.471s0.041 0.258 0.059 0.355c0.017 0.096 0.030 0.17 0.039 0.224 0.004 0.024 0.007 0.043 0.009 0.058 0.002 0.013 0.003 0.020 0.002 0.020s-0.002-0.006-0.005-0.019c-0.003-0.015-0.007-0.034-0.013-0.058-0.011-0.053-0.026-0.128-0.045-0.223-0.020-0.097-0.043-0.215-0.065-0.354s-0.052-0.296-0.074-0.471c-0.012-0.087-0.024-0.179-0.038-0.275s-0.022-0.195-0.034-0.299c-0.025-0.206-0.041-0.428-0.059-0.66-0.030-0.466-0.047-0.979-0.038-1.518 0.012-0.539 0.048-1.051 0.096-1.516 0.027-0.232 0.052-0.452 0.084-0.658 0.016-0.103 0.028-0.202 0.045-0.297s0.033-0.186 0.048-0.273c0.029-0.174 0.064-0.33 0.092-0.468s0.055-0.255 0.078-0.351c0.023-0.094 0.041-0.168 0.054-0.221 0.006-0.024 0.011-0.043 0.015-0.057 0.004-0.013 0.006-0.019 0.006-0.019z"></path>
<path fill="#7c4236" style="fill: var(--color8, #7c4236)" d="M18.336 21.428c-0.002 0.001-0.020-0.035-0.049-0.101-0.031-0.071-0.073-0.165-0.124-0.279-0.103-0.237-0.244-0.566-0.399-0.932l-0.001-0.003-0-0.003c-0.001-0.015-0.001-0.032-0.002-0.049-0.017-0.408-0.030-0.777-0.039-1.045-0.003-0.13-0.006-0.237-0.008-0.317-0-0.034-0-0.063-0-0.086 0-0.020 0.001-0.030 0.002-0.030s0.003 0.010 0.005 0.030c0.002 0.023 0.004 0.052 0.007 0.086 0.005 0.080 0.011 0.187 0.019 0.316 0.014 0.267 0.031 0.636 0.048 1.044 0.001 0.017 0.001 0.033 0.002 0.049l-0.001-0.006c0.155 0.366 0.292 0.697 0.39 0.936 0.047 0.116 0.085 0.212 0.114 0.284 0.026 0.067 0.040 0.105 0.038 0.105z"></path>
<path fill="#fff" style="fill: var(--color3, #fff)" d="M17.593 15.525c-0.002 0.009-0.273-0.036-0.606-0.101s-0.601-0.125-0.599-0.134 0.273 0.036 0.606 0.101c0.333 0.065 0.601 0.125 0.599 0.134z"></path>
<path fill="#ff735d" style="fill: var(--color9, #ff735d)" d="M8.494 26.962c0 0.67-0.548 1.213-1.224 1.213s-1.224-0.543-1.224-1.213c0-0.67 0.548-1.213 1.224-1.213s1.224 0.543 1.224 1.213z"></path>
<path fill="#000" style="fill: var(--color10, #000)" opacity="0.300003" d="M8.494 26.962c0 0.67-0.548 1.213-1.224 1.213s-1.224-0.543-1.224-1.213c0-0.67 0.548-1.213 1.224-1.213s1.224 0.543 1.224 1.213z"></path>
<path fill="#ff735d" style="fill: var(--color9, #ff735d)" d="M8.884 26.962c0 0.67-0.548 1.213-1.224 1.213s-1.224-0.543-1.224-1.213c0-0.67 0.548-1.213 1.224-1.213s1.224 0.543 1.224 1.213z"></path>
<path fill="#c17560" style="fill: var(--color7, #c17560)" d="M6.974 24.707c0 0.046-0.001 0.838-0.139 1.282s-0.207 0.9-0.149 1.070c0.057 0.171 0.701 0.797 0.85 0.854s1.46-0.057 1.46-0.057l0.448-1.515c0 0-0.517-0.729-0.736-1.116s-0.416-0.838-0.392-1.108c0.024-0.27-1.343 0.589-1.343 0.589z"></path>
<path fill="#ff735d" style="fill: var(--color9, #ff735d)" d="M9.951 27.078c0 0.67-0.548 1.213-1.224 1.213s-1.224-0.543-1.224-1.213c0-0.67 0.548-1.213 1.224-1.213s1.224 0.543 1.224 1.213z"></path>
<path fill="#c17560" style="fill: var(--color7, #c17560)" d="M11.409 11.211c-0.362 0.046-0.713 0.165-1.019 0.363-0.499 0.322-1.101 0.939-1.317 2.095-0.392 2.103-0.6 3.954-0.83 4.434s-0.715 1.394-0.761 2.354c-0.046 0.96-0.507 4.251-0.507 4.251h1.199c0 0 1.107-3.405 1.522-4.502s0.307-1.124 0.584-2.152c0.277-1.028 0.853-3.006 0.853-3.006l0.691-2.089 0.218-1.761-0.634 0.015z"></path>
<path fill="#7c4236" style="fill: var(--color8, #7c4236)" d="M11.196 13.005c0.004-0.002 0.032 0.058 0.068 0.156s0.081 0.238 0.114 0.395c0.033 0.158 0.047 0.303 0.053 0.408s0.004 0.17-0.001 0.17c-0.005 0-0.011-0.064-0.023-0.168s-0.030-0.247-0.062-0.403c-0.032-0.156-0.073-0.294-0.103-0.395s-0.050-0.162-0.046-0.164z"></path>
<path fill="#000" style="fill: var(--color10, #000)" opacity="0.300003" d="M9.951 27.078c0 0.67-0.548 1.213-1.224 1.213s-1.224-0.543-1.224-1.213c0-0.67 0.548-1.213 1.224-1.213s1.224 0.543 1.224 1.213z"></path>
<path fill="#ff735d" style="fill: var(--color9, #ff735d)" d="M10.382 27.078c0 0.67-0.548 1.213-1.224 1.213s-1.224-0.543-1.224-1.213c0-0.67 0.548-1.213 1.224-1.213s1.224 0.543 1.224 1.213z"></path>
<path fill="#1a2e35" style="fill: var(--color5, #1a2e35)" d="M9.2 27.203l-0.057 0.004 0.007 0.090-0.079 0.006-0.007-0.090-0.187 0.013-0.005-0.067 0.144-0.284 0.084-0.006-0.133 0.269 0.093-0.007-0.006-0.080 0.076-0.005 0.006 0.080 0.057-0.004 0.006 0.081z"></path>
<path fill="#1a2e35" style="fill: var(--color5, #1a2e35)" d="M9.352 27.153l-0.034 0.048 0.006 0.084-0.077 0.005-0.033-0.455 0.077-0.006 0.019 0.258 0.104-0.141 0.092-0.006-0.101 0.148 0.135 0.182-0.094 0.007-0.094-0.123z"></path>
<path fill="#1a2e35" style="fill: var(--color5, #1a2e35)" d="M10.183 27.078c-0.006 0 0.001-0.091-0.038-0.246-0.018-0.078-0.056-0.17-0.115-0.268s-0.144-0.198-0.259-0.284c-0.115-0.085-0.26-0.157-0.426-0.186-0.166-0.028-0.353-0.023-0.531 0.045-0.090 0.031-0.176 0.078-0.255 0.136-0.041 0.028-0.077 0.063-0.114 0.096-0.034 0.037-0.070 0.074-0.099 0.116-0.124 0.164-0.194 0.374-0.196 0.591 0.002 0.217 0.072 0.427 0.196 0.591 0.029 0.042 0.065 0.079 0.099 0.116 0.038 0.034 0.073 0.069 0.114 0.096 0.079 0.059 0.166 0.106 0.255 0.136 0.178 0.067 0.365 0.073 0.531 0.045 0.167-0.029 0.312-0.101 0.426-0.186s0.2-0.187 0.259-0.284c0.058-0.097 0.096-0.19 0.115-0.267 0.040-0.156 0.033-0.247 0.038-0.246 0.001 0 0.001 0.006 0.001 0.017-0 0.013-0.001 0.029-0.001 0.048 0 0.021-0.001 0.048-0.006 0.079s-0.008 0.067-0.019 0.106c-0.017 0.079-0.053 0.174-0.111 0.274s-0.144 0.204-0.261 0.293c-0.117 0.088-0.264 0.164-0.436 0.195-0.17 0.030-0.363 0.026-0.546-0.043-0.092-0.031-0.182-0.079-0.264-0.14-0.042-0.029-0.080-0.065-0.118-0.099-0.035-0.038-0.072-0.076-0.102-0.119-0.129-0.169-0.201-0.386-0.203-0.61 0.002-0.224 0.075-0.441 0.203-0.61 0.030-0.044 0.067-0.081 0.102-0.119 0.039-0.035 0.076-0.071 0.118-0.099 0.082-0.060 0.171-0.108 0.264-0.14 0.184-0.068 0.376-0.073 0.546-0.043 0.171 0.031 0.319 0.106 0.436 0.195s0.202 0.194 0.261 0.293c0.058 0.1 0.094 0.194 0.111 0.274 0.011 0.039 0.015 0.075 0.019 0.106s0.006 0.057 0.006 0.079c0 0.020 0.001 0.036 0.001 0.048 0 0.011-0 0.017-0.001 0.017z"></path>
</symbol>
<symbol id="-iconwhatsapp-icon" viewBox="0 0 31 32">
<path d="M21.248 18.56c-0.256-0.128-1.92-0.896-2.176-1.024s-0.512-0.128-0.768 0.128c-0.256 0.256-0.768 1.024-1.024 1.28-0.128 0.256-0.384 0.256-0.64 0.128-0.896-0.384-1.792-0.896-2.56-1.536-0.64-0.64-1.28-1.408-1.792-2.176-0.128-0.256 0-0.512 0.128-0.64s0.256-0.384 0.512-0.512c0.128-0.128 0.256-0.384 0.256-0.512 0.128-0.128 0.128-0.384 0-0.512s-0.768-1.664-1.024-2.304c-0.128-0.896-0.384-0.896-0.64-0.896-0.128 0-0.384 0-0.64 0s-0.64 0.256-0.768 0.384c-0.768 0.768-1.152 1.664-1.152 2.688 0.128 1.152 0.512 2.304 1.28 3.328 1.408 2.048 3.2 3.712 5.376 4.736 0.64 0.256 1.152 0.512 1.792 0.64 0.64 0.256 1.28 0.256 2.048 0.128 0.896-0.128 1.664-0.768 2.176-1.536 0.256-0.512 0.256-1.024 0.128-1.536 0 0-0.256-0.128-0.512-0.256zM24.448 6.912c-4.992-4.992-13.056-4.992-18.048 0-4.096 4.096-4.864 10.368-2.048 15.36l-1.792 6.528 6.784-1.792c1.92 1.024 3.968 1.536 6.016 1.536 7.040 0 12.672-5.632 12.672-12.672 0.128-3.328-1.28-6.528-3.584-8.96zM20.992 24.832c-1.664 1.024-3.584 1.664-5.632 1.664-1.92 0-3.712-0.512-5.376-1.408l-0.384-0.256-3.968 1.024 1.024-3.84-0.256-0.384c-3.072-5.12-1.536-11.52 3.456-14.72s11.392-1.536 14.464 3.328c3.072 4.992 1.664 11.52-3.328 14.592z"></path>
</symbol>
</defs>
</svg>
